<svg xmlns="http://www.w3.org/2000/svg" viewBox="0 0 512 512"><circle cx="256" cy="256" r="256" fill="#55a8eb"/><path d="M156.294 384.606q-2.28-33.63-5.13-70.395-2.85-36.765-5.415-70.395-2.565-33.63-4.275-57.285-1.71-23.655-2.85-30.495-1.71-13.11 1.425-17.955l3.135-4.845-3.99-4.275q-3.99-4.275-3.99-9.405 0-9.12 11.115-14.82 11.115-5.7 25.365-8.55 14.25-2.85 25.365-3.99l11.115-1.14 11.4-.57q11.4-.57 29.355 1.14t38.76 8.835q20.805 7.125 39.9 22.515t32.205 41.895q13.11 26.505 15.96 67.545 3.42 48.45-4.275 81.51t-22.8 53.865q-15.105 20.805-34.485 32.205-19.38 11.4-40.185 15.675-20.805 4.275-39.33 5.13-18.525.855-32.205.855-19.95 0-29.925-5.7-9.975-5.7-13.11-12.825-3.135-7.125-3.135-12.825v-5.7Zm60.99-242.25 25.08 230.85 5.13-.57q5.13-.57 12.825-5.13 7.695-4.56 14.82-16.53 7.125-11.97 11.115-33.915t1.71-57.285q-2.28-44.46-9.405-69.255-7.125-24.795-17.1-35.625-9.975-10.83-21.375-12.54-11.4-1.71-22.8 0Z" fill="#fefdd8"/></svg>